<?xml version="1.0" encoding="UTF-8" standalone="no"?>
<!-- Created with Inkscape (http://www.inkscape.org/) -->

<svg
   xmlns:dc="http://purl.org/dc/elements/1.1/"
   xmlns:cc="http://creativecommons.org/ns#"
   xmlns:rdf="http://www.w3.org/1999/02/22-rdf-syntax-ns#"
   xmlns:svg="http://www.w3.org/2000/svg"
   xmlns="http://www.w3.org/2000/svg"
   xmlns:sodipodi="http://sodipodi.sourceforge.net/DTD/sodipodi-0.dtd"
   xmlns:inkscape="http://www.inkscape.org/namespaces/inkscape"
   id="svg2"
   version="1.1"
   inkscape:version="0.91 r13725"
   width="256"
   height="64"
   viewBox="0 0 256 64"
   sodipodi:docname="gore.svg"
   inkscape:export-filename="/home/andrew/Music/gore.png"
   inkscape:export-xdpi="90"
   inkscape:export-ydpi="90">
  <metadata
     id="metadata8">
    <rdf:RDF>
      <cc:Work
         rdf:about="">
        <dc:format>image/svg+xml</dc:format>
        <dc:type
           rdf:resource="http://purl.org/dc/dcmitype/StillImage" />
        <dc:title></dc:title>
      </cc:Work>
    </rdf:RDF>
  </metadata>
  <defs
     id="defs6" />
  <sodipodi:namedview
     pagecolor="#ffffff"
     bordercolor="#666666"
     borderopacity="1"
     objecttolerance="10"
     gridtolerance="10"
     guidetolerance="10"
     inkscape:pageopacity="0"
     inkscape:pageshadow="2"
     inkscape:window-width="1853"
     inkscape:window-height="1134"
     id="namedview4"
     showgrid="false"
     inkscape:zoom="2.75"
     inkscape:cx="138.24574"
     inkscape:cy="83.474809"
     inkscape:window-x="67"
     inkscape:window-y="27"
     inkscape:window-maximized="1"
     inkscape:current-layer="svg2" />
  <g
     id="g4148">
    <path
       sodipodi:nodetypes="caaaaaaaaaaaaaaaaaaaaaaaaaaaaaaaaaaaac"
       inkscape:connector-curvature="0"
       id="path4140"
       d="m 141.42335,7.3526072 c 1.24847,-0.017039 2.50979,0.381334 3.62533,0.9421782 0.93148,0.468306 1.74271,1.1827344 2.43706,1.9604516 0.61979,0.694213 0.80374,1.733926 1.49314,2.359068 0.86043,0.780228 1.98019,1.306711 3.11203,1.567513 4.73945,1.092076 9.80062,0.649813 14.58957,-0.199308 1.02267,-0.181328 2.00999,-0.569365 2.94029,-1.031195 1.7128,-0.85029 2.9731,-2.553288 4.78509,-3.1643283 1.60864,-0.5424676 3.51433,-0.9890257 5.08177,-0.3370098 1.06029,0.4410523 1.98711,1.4836611 2.26171,2.5987081 0.25684,1.042935 -0.18666,2.217339 -0.74481,3.135025 -0.50198,0.825337 -1.6435,1.098866 -2.19553,1.891602 -0.23578,0.338586 -0.59588,0.780902 -0.43248,1.159759 0.21224,0.492103 0.97562,0.447491 1.48117,0.625335 0.67782,0.238446 1.47629,0.189919 2.07343,0.589571 0.72464,0.484979 1.34088,1.227439 1.62076,2.053253 0.27453,0.810042 0.34164,1.799028 -0.0377,2.56562 -0.63299,1.279298 -2.00196,2.225569 -3.36553,2.647394 -1.66785,0.515953 -3.65436,0.412302 -5.22593,-0.34804 -1.24066,-0.600246 -1.7856,-2.105783 -2.77596,-3.064282 -0.66445,-0.64307 -1.31272,-1.335612 -2.11565,-1.794232 -1.47167,-0.840598 -3.12491,-1.428884 -4.80257,-1.66945 -3.01879,-0.432877 -6.149,-0.152203 -9.1377,0.454546 -1.88593,0.382871 -3.79693,0.952772 -5.42146,1.984402 -1.66945,1.06016 -2.5738,3.071824 -4.2149,4.175357 -0.79091,0.531836 -1.67694,1.106592 -2.62991,1.122105 -0.82615,0.01345 -1.7618,-0.280188 -2.31038,-0.898062 -0.73176,-0.824186 -0.90523,-2.102778 -0.82464,-3.201984 0.0525,-0.716728 0.40736,-1.410598 0.83646,-1.987079 0.39807,-0.53478 1.03952,-0.835469 1.54316,-1.272271 0.25617,-0.222175 0.70907,-0.349094 0.75162,-0.685505 0.0452,-0.35754 -0.29159,-0.70582 -0.59225,-0.904522 -0.71259,-0.470938 -1.72521,-0.144371 -2.52246,-0.450923 -1.3051,-0.501833 -2.7668,-1.067084 -3.56009,-2.218528 -0.91798,-1.332434 -1.30618,-3.189998 -0.93116,-4.763983 0.29475,-1.2370733 1.28898,-2.2983701 2.34159,-3.0119749 0.82341,-0.5582183 1.87216,-0.8156356 2.86686,-0.8292109 z"
       style="opacity:1;fill:#d5c9b6;fill-rule:evenodd;stroke:none;stroke-width:1px;stroke-linecap:butt;stroke-linejoin:miter;stroke-opacity:1;fill-opacity:1" />
    <path
       id="path4142"
       d="M 177.61523 9.1269531 C 177.51022 9.1288277 177.40443 9.1414729 177.29883 9.1484375 C 177.98688 9.212074 178.74303 9.2958477 179.2832 9.7226562 C 180.07688 10.349764 180.69111 11.358859 180.77148 12.367188 C 180.83018 13.103324 180.40024 13.822204 180.00391 14.445312 C 179.4797 15.269485 178.20187 15.586835 177.94531 16.529297 C 177.79131 17.095004 177.99499 17.789555 178.37695 18.234375 C 178.21355 17.855518 178.57281 17.414758 178.80859 17.076172 C 179.36062 16.283436 180.50193 16.008931 181.00391 15.183594 C 181.56206 14.265908 182.00684 13.091763 181.75 12.048828 C 181.4754 10.933781 180.54857 9.8902711 179.48828 9.4492188 C 178.90049 9.2047128 178.26466 9.11536 177.61523 9.1269531 z M 169.62109 12.951172 C 168.69079 13.413002 167.70236 13.801094 166.67969 13.982422 C 167.70236 13.801094 168.71417 13.457373 169.62109 12.951172 z M 160.39062 19.373047 C 158.76577 19.345854 157.13909 19.450791 155.54492 19.703125 C 153.51716 20.024089 151.49451 20.66398 149.71484 21.6875 C 148.3967 22.44559 147.51285 23.800699 146.27344 24.681641 C 145.63506 25.135385 145.00716 25.722254 144.23438 25.849609 C 143.4753 25.974706 142.60828 25.833846 141.96875 25.40625 C 141.3273 24.977384 140.76151 24.244794 140.68945 23.476562 C 140.60886 24.575768 140.78191 25.853548 141.51367 26.677734 C 142.06225 27.295608 142.99807 27.589622 143.82422 27.576172 C 144.77719 27.560659 145.66417 26.986914 146.45508 26.455078 C 148.09618 25.351545 149.00047 23.339457 150.66992 22.279297 C 152.29445 21.247667 154.20587 20.677793 156.0918 20.294922 C 159.0805 19.688173 162.20973 19.406967 165.22852 19.839844 C 163.63896 19.559918 162.01548 19.40024 160.39062 19.373047 z M 181.93164 19.449219 C 182.3378 19.798444 182.474 20.390928 182.59766 20.912109 C 182.79524 21.744829 183.02869 22.690291 182.69531 23.478516 C 182.1633 24.736262 180.9443 25.78587 179.64844 26.216797 C 178.26303 26.677501 176.6413 26.367936 175.28711 25.822266 C 174.04263 25.32081 173.18148 24.158476 172.14648 23.304688 C 173.13684 24.263187 173.68122 25.768895 174.92188 26.369141 C 176.49345 27.129483 178.48059 27.23275 180.14844 26.716797 C 181.51201 26.294972 182.88068 25.347657 183.51367 24.068359 C 183.89301 23.301767 183.82726 22.313948 183.55273 21.503906 C 183.27285 20.678092 182.65628 19.934198 181.93164 19.449219 z M 141.86328 21.126953 C 141.7393 21.237171 141.62491 21.356539 141.52539 21.490234 C 141.62491 21.356539 141.74125 21.237171 141.86523 21.126953 C 141.86486 21.12729 141.86366 21.126616 141.86328 21.126953 z "
       style="opacity:0.25;fill:#000000;fill-rule:evenodd;stroke:none;stroke-width:1px;stroke-linecap:butt;stroke-linejoin:miter;stroke-opacity:1" />
  </g>
  <g
     id="g4158"
     transform="translate(65.439519,0)">
    <path
       style="opacity:1;fill:#d5c9b6;fill-opacity:1;fill-rule:evenodd;stroke:none;stroke-width:1px;stroke-linecap:butt;stroke-linejoin:miter;stroke-opacity:1"
       d="m 141.42335,7.3526072 c 1.24847,-0.017039 2.50979,0.381334 3.62533,0.9421782 0.93148,0.468306 1.74271,1.1827344 2.43706,1.9604516 0.61979,0.694213 0.80374,1.733926 1.49314,2.359068 0.86043,0.780228 1.98019,1.306711 3.11203,1.567513 4.73945,1.092076 9.80062,0.649813 14.58957,-0.199308 1.02267,-0.181328 2.00999,-0.569365 2.94029,-1.031195 1.7128,-0.85029 2.9731,-2.553288 4.78509,-3.1643283 1.60864,-0.5424676 3.51433,-0.9890257 5.08177,-0.3370098 1.06029,0.4410523 1.98711,1.4836611 2.26171,2.5987081 0.25684,1.042935 -0.18666,2.217339 -0.74481,3.135025 -0.50198,0.825337 -1.6435,1.098866 -2.19553,1.891602 -0.23578,0.338586 -0.59588,0.780902 -0.43248,1.159759 0.21224,0.492103 0.97562,0.447491 1.48117,0.625335 0.67782,0.238446 1.47629,0.189919 2.07343,0.589571 0.72464,0.484979 1.34088,1.227439 1.62076,2.053253 0.27453,0.810042 0.34164,1.799028 -0.0377,2.56562 -0.63299,1.279298 -2.00196,2.225569 -3.36553,2.647394 -1.66785,0.515953 -3.65436,0.412302 -5.22593,-0.34804 -1.24066,-0.600246 -1.7856,-2.105783 -2.77596,-3.064282 -0.66445,-0.64307 -1.31272,-1.335612 -2.11565,-1.794232 -1.47167,-0.840598 -3.12491,-1.428884 -4.80257,-1.66945 -3.01879,-0.432877 -6.149,-0.152203 -9.1377,0.454546 -1.88593,0.382871 -3.79693,0.952772 -5.42146,1.984402 -1.66945,1.06016 -2.5738,3.071824 -4.2149,4.175357 -0.79091,0.531836 -1.67694,1.106592 -2.62991,1.122105 -0.82615,0.01345 -1.7618,-0.280188 -2.31038,-0.898062 -0.73176,-0.824186 -0.90523,-2.102778 -0.82464,-3.201984 0.0525,-0.716728 0.40736,-1.410598 0.83646,-1.987079 0.39807,-0.53478 1.03952,-0.835469 1.54316,-1.272271 0.25617,-0.222175 0.70907,-0.349094 0.75162,-0.685505 0.0452,-0.35754 -0.29159,-0.70582 -0.59225,-0.904522 -0.71259,-0.470938 -1.72521,-0.144371 -2.52246,-0.450923 -1.3051,-0.501833 -2.7668,-1.067084 -3.56009,-2.218528 -0.91798,-1.332434 -1.30618,-3.189998 -0.93116,-4.763983 0.29475,-1.2370733 1.28898,-2.2983701 2.34159,-3.0119749 0.82341,-0.5582183 1.87216,-0.8156356 2.86686,-0.8292109 z"
       id="path4160"
       inkscape:connector-curvature="0"
       sodipodi:nodetypes="caaaaaaaaaaaaaaaaaaaaaaaaaaaaaaaaaaaac" />
    <path
       style="opacity:1;fill:#d00000;fill-opacity:1;fill-rule:evenodd;stroke:none;stroke-width:1px;stroke-linecap:butt;stroke-linejoin:miter;stroke-opacity:1"
       d="M 208.9082 15.488281 C 208.10003 15.546389 207.41552 16.785563 206.5625 17.099609 C 205.91544 17.337827 205.21181 17.574611 204.5293 17.482422 C 205.05889 17.744548 205.61286 17.970594 206.14648 18.175781 C 206.94373 18.482333 207.95538 18.156015 208.66797 18.626953 C 208.96863 18.825655 209.30497 19.17371 209.25977 19.53125 C 209.21722 19.867661 208.76398 19.994622 208.50781 20.216797 C 208.00417 20.653599 207.36291 20.955454 206.96484 21.490234 C 206.53574 22.066715 206.18141 22.759835 206.12891 23.476562 C 206.04832 24.575768 206.22136 25.853548 206.95312 26.677734 C 207.50171 27.295608 208.43752 27.589622 209.26367 27.576172 C 210.21664 27.560659 211.10362 26.986914 211.89453 26.455078 C 213.53563 25.351545 214.43993 23.339457 216.10938 22.279297 C 217.73391 21.247667 219.64532 20.677793 221.53125 20.294922 C 220.36092 19.738834 220.50287 17.39651 219.22852 17.162109 C 218.52774 17.03321 217.98963 17.87916 217.43164 18.322266 C 216.59482 18.986795 216.06227 20.030484 215.12891 20.550781 C 214.54997 20.873509 213.83376 21.236928 213.20117 21.039062 C 212.45416 20.805411 212.22505 19.809245 211.6582 19.269531 C 211.17785 18.812179 210.47714 18.579706 210.0957 18.037109 C 209.59135 17.31966 210.08173 15.852031 209.26172 15.541016 C 209.1403 15.494963 209.02366 15.47998 208.9082 15.488281 z M 244.24805 17.076172 C 243.95938 17.370963 243.65301 17.855518 243.81641 18.234375 C 243.65301 17.855518 244.01227 17.414758 244.24805 17.076172 z M 239.10742 18.464844 C 238.54296 18.495759 237.97345 18.657141 237.52148 18.970703 C 237.02729 19.313571 236.90814 20.010611 236.52539 20.474609 C 236.21203 20.854492 235.95123 21.402084 235.4707 21.509766 C 236.27363 21.968386 236.92149 22.661617 237.58594 23.304688 C 238.5763 24.263187 239.12067 25.768895 240.36133 26.369141 C 241.9329 27.129483 243.92004 27.23275 245.58789 26.716797 C 246.95146 26.294972 248.32013 25.347657 248.95312 24.068359 C 249.33247 23.301767 249.26672 22.313948 248.99219 21.503906 C 248.71231 20.678092 248.09573 19.934198 247.37109 19.449219 C 246.77395 19.049567 245.97469 19.099774 245.29688 18.861328 C 245.38008 19.488042 244.42408 19.912571 243.80273 20.029297 C 243.10372 20.160615 242.42628 19.662296 241.75977 19.414062 C 241.04285 19.147058 240.42547 18.550849 239.66406 18.476562 C 239.48157 18.458758 239.29558 18.454539 239.10742 18.464844 z "
       transform="translate(-65.439519,0)"
       id="path4164" />
    <path
       style="opacity:0.25;fill:#000000;fill-rule:evenodd;stroke:none;stroke-width:1px;stroke-linecap:butt;stroke-linejoin:miter;stroke-opacity:1"
       d="m 177.61523,9.1269531 c -0.10501,0.00187 -0.2108,0.01452 -0.3164,0.021484 0.68805,0.063636 1.4442,0.1474102 1.98437,0.5742187 0.79368,0.6271078 1.40791,1.6362028 1.48828,2.6445318 0.0587,0.736136 -0.37124,1.455016 -0.76757,2.078124 -0.52421,0.824173 -1.80204,1.141523 -2.0586,2.083985 -0.154,0.565707 0.0497,1.260258 0.43164,1.705078 -0.1634,-0.378857 0.19586,-0.819617 0.43164,-1.158203 0.55203,-0.792736 1.69334,-1.067241 2.19532,-1.892578 0.55815,-0.917686 1.00293,-2.091831 0.74609,-3.134766 -0.2746,-1.115047 -1.20143,-2.1585569 -2.26172,-2.5996092 -0.58779,-0.244506 -1.22362,-0.3338588 -1.87305,-0.3222657 z m -7.99414,3.8242189 c -0.9303,0.46183 -1.91873,0.849922 -2.9414,1.03125 1.02267,-0.181328 2.03448,-0.525049 2.9414,-1.03125 z m -9.23047,6.421875 c -1.62485,-0.02719 -3.25153,0.07774 -4.8457,0.330078 -2.02776,0.320964 -4.05041,0.960855 -5.83008,1.984375 -1.31814,0.75809 -2.20199,2.113199 -3.4414,2.994141 -0.63838,0.453744 -1.26628,1.040613 -2.03906,1.167968 -0.75908,0.125097 -1.6261,-0.01576 -2.26563,-0.443359 -0.64145,-0.428866 -1.20724,-1.161456 -1.2793,-1.929688 -0.0806,1.099206 0.0925,2.376986 0.82422,3.201172 0.54858,0.617874 1.4844,0.911888 2.31055,0.898438 0.95297,-0.01551 1.83995,-0.589258 2.63086,-1.121094 1.6411,-1.103533 2.54539,-3.115621 4.21484,-4.175781 1.62453,-1.03163 3.53595,-1.601504 5.42188,-1.984375 2.9887,-0.606749 6.11793,-0.887955 9.13672,-0.455078 -1.58956,-0.279926 -3.21304,-0.439604 -4.8379,-0.466797 z m 21.54102,0.07617 c 0.40616,0.349225 0.54236,0.941709 0.66602,1.46289 0.19758,0.83272 0.43103,1.778182 0.0977,2.566407 -0.53201,1.257746 -1.75101,2.307354 -3.04687,2.738281 -1.38541,0.460704 -3.00714,0.151139 -4.36133,-0.394531 -1.24448,-0.501456 -2.10563,-1.66379 -3.14063,-2.517578 0.99036,0.958499 1.53474,2.464207 2.7754,3.064453 1.57157,0.760342 3.55871,0.863609 5.22656,0.347656 1.36357,-0.421825 2.73224,-1.36914 3.36523,-2.648438 0.37934,-0.766592 0.31359,-1.754411 0.0391,-2.564453 -0.27988,-0.825814 -0.89645,-1.569708 -1.62109,-2.054687 z m -40.06836,1.677734 c -0.12398,0.110218 -0.23837,0.229586 -0.33789,0.363281 0.0995,-0.133695 0.21586,-0.253063 0.33984,-0.363281 -3.7e-4,3.37e-4 -0.002,-3.37e-4 -0.002,0 z"
       id="path4162"
       inkscape:connector-curvature="0" />
  </g>
  <g
     id="g4186">
    <path
       sodipodi:nodetypes="aaaaaaaaaaaaaaaaaaaaaaaaaaaaaaaaaaa"
       inkscape:connector-curvature="0"
       id="path4179"
       d="m 212.16417,49.407887 c 0.75892,-0.408577 1.4108,-0.990613 2.12133,-1.478496 0.37945,-0.260546 0.8149,-0.451635 1.14377,-0.773673 0.64984,-0.636329 0.96264,-1.555753 1.57586,-2.227435 0.7635,-0.836287 1.50748,-1.853472 2.58367,-2.205769 1.10268,-0.360965 2.38949,-0.162386 3.47125,0.25713 0.71139,0.275884 1.18436,0.963337 1.79991,1.414213 0.46028,0.337147 0.87714,1.156814 1.41421,0.964237 0.50425,-0.18081 0.16681,-1.088055 0.44998,-1.542779 0.53716,-0.862585 1.28918,-1.72589 2.24988,-2.057037 0.79239,-0.273132 1.72601,-0.111308 2.50702,0.192847 0.711,0.276891 1.47476,0.723948 1.79991,1.414213 0.37448,0.795003 0.24315,1.812328 -0.0643,2.63558 -0.22364,0.598844 -0.64305,1.206116 -1.22136,1.478496 -0.81417,0.383471 -1.86143,-0.327013 -2.69987,0 -0.67815,0.264495 -0.90762,1.276918 -1.60706,1.478496 -0.68046,0.19611 -1.39092,-0.503731 -2.08917,-0.385694 -0.7901,0.133564 -1.59981,0.554701 -2.08918,1.189225 -0.30472,0.395108 -0.15465,1.004104 -0.3857,1.446354 -0.33793,0.64684 -0.76827,1.331687 -1.41421,1.671344 -0.7624,0.400899 -1.75747,0.539328 -2.5713,0.257129 -0.78748,-0.273055 -1.03241,-1.410633 -1.79991,-1.735625 -1.16482,-0.493238 -2.53624,-0.275201 -3.79267,-0.128565 -0.72799,0.08496 -1.41766,0.373467 -2.12132,0.578542 -0.62464,0.182048 -1.24778,0.370281 -1.86418,0.578542 -0.88626,0.299436 -1.71446,0.801026 -2.63559,0.964236 -0.69626,0.123366 -1.43567,-0.172863 -2.12132,2e-6 -0.61354,0.154687 -1.12516,0.580487 -1.67133,0.899954 -0.6568,0.384173 -1.17893,1.090424 -1.92848,1.221367 -0.38921,0.06799 -0.85421,-0.0034 -1.15708,-0.25713 -0.21353,-0.178884 -0.40738,-0.506428 -0.32141,-0.771389 0.27898,-0.859899 1.57211,-0.897864 2.31416,-1.414214 0.73892,-0.514171 1.28312,-1.343019 2.12132,-1.671343 1.16715,-0.457174 2.52794,-0.01331 3.74865,-0.29811 1.48661,-0.346836 2.9104,-0.971011 4.25452,-1.694648 z"
       style="opacity:1;fill:#d00000;fill-rule:evenodd;stroke:none;stroke-width:1px;stroke-linecap:butt;stroke-linejoin:miter;stroke-opacity:1;fill-opacity:1" />
    <path
       id="path4181"
       d="M 233.28125 43.365234 C 233.43368 44.250693 233.06168 45.227032 232.53516 45.955078 C 232.23554 46.369384 231.74883 46.647643 231.26758 46.820312 C 230.55309 47.076664 229.71858 46.780745 229 47.025391 C 228.42456 47.221305 228.05026 47.854888 227.46094 48.003906 C 226.843 48.160159 226.17239 47.709997 225.55469 47.867188 C 224.47443 48.142086 223.34716 48.737496 222.73633 49.669922 C 222.44777 50.110416 222.72331 50.759237 222.48828 51.230469 C 222.18991 51.82865 221.67655 52.342977 221.0957 52.673828 C 220.51313 53.005665 219.78523 53.314135 219.13867 53.136719 C 219.9525 53.418918 220.94854 53.279805 221.71094 52.878906 C 222.35688 52.539249 222.78707 51.853871 223.125 51.207031 C 223.35605 50.764781 223.20505 50.156827 223.50977 49.761719 C 223.99914 49.127195 224.80951 48.70583 225.59961 48.572266 C 226.29786 48.454229 227.00704 49.153141 227.6875 48.957031 C 228.38694 48.755453 228.61677 47.743011 229.29492 47.478516 C 230.13336 47.151503 231.18192 47.861987 231.99609 47.478516 C 232.5744 47.206136 232.99316 46.598844 233.2168 46 C 233.52425 45.176748 233.65573 44.160237 233.28125 43.365234 z M 215.45312 51.003906 C 214.79623 50.976398 214.1243 51.021601 213.47852 51.044922 C 212.76225 51.070792 212.05235 51.221032 211.35742 51.396484 C 210.73599 51.553379 210.14663 51.821323 209.53711 52.019531 C 208.6932 52.293965 207.86909 52.654513 206.99414 52.802734 C 206.39365 52.90446 205.76356 52.743804 205.16797 52.871094 C 204.3647 53.04277 203.60313 53.398193 202.88281 53.792969 C 202.25597 54.136513 201.79252 54.752705 201.13672 55.037109 C 200.79698 55.184445 200.40692 55.34442 200.04688 55.257812 C 200.34974 55.511542 200.81392 55.583615 201.20312 55.515625 C 201.95268 55.384682 202.47601 54.677142 203.13281 54.292969 C 203.67898 53.973502 204.19115 53.547265 204.80469 53.392578 C 205.49034 53.219713 206.22952 53.515944 206.92578 53.392578 C 207.84691 53.229368 208.67429 52.729124 209.56055 52.429688 C 210.17695 52.221426 210.80114 52.033611 211.42578 51.851562 C 212.12944 51.646488 212.81888 51.356444 213.54688 51.271484 C 214.80331 51.124848 216.17502 50.907153 217.33984 51.400391 C 216.75235 51.131265 216.11002 51.031415 215.45312 51.003906 z "
       style="opacity:0.25;fill:#000000;fill-rule:evenodd;stroke:none;stroke-width:1px;stroke-linecap:butt;stroke-linejoin:miter;stroke-opacity:1;fill-opacity:1" />
  </g>
  <g
     id="g4195">
    <path
       sodipodi:nodetypes="aaaaaaaaaaaaaaaaaaaaaaaaaaaaaaaaaaa"
       inkscape:connector-curvature="0"
       id="path4177"
       d="m 154.14928,42.658232 c 1.90282,-1.100148 3.53012,-3.453025 5.72114,-3.278405 0.71388,0.05689 1.00246,1.094089 1.67134,1.349932 0.78155,0.298939 1.8243,-0.355267 2.50701,0.128564 1.15251,0.816779 1.36921,2.528808 1.60706,3.921229 0.28539,1.67074 0.38616,3.510191 -0.25712,5.078313 -0.50112,1.221567 -1.54492,2.212818 -2.63559,2.956992 -0.50962,0.34772 -1.31107,0.195187 -1.73563,0.642824 -0.56875,0.599675 -0.34008,1.642451 -0.73696,2.36742 -0.2704,0.493938 -0.56858,1.075209 -1.08823,1.292111 -1.03197,0.430735 -2.34415,0.232587 -3.34402,-0.26816 -0.82146,-0.411401 -1.52431,-1.198899 -1.82197,-2.068067 -0.20376,-0.594972 -0.14583,-1.311919 0.11752,-1.883019 0.31631,-0.685949 1.31934,-0.886641 1.62845,-1.575865 0.14546,-0.324347 0.10385,-0.715089 0.0441,-1.065506 -0.068,-0.398943 -0.23312,-0.785777 -0.4493,-1.127896 -0.32143,-0.508683 -0.76269,-0.941571 -1.22783,-1.323305 -0.62667,-0.514297 -1.2776,-1.109544 -2.0713,-1.274619 -1.01244,-0.210567 -2.07377,0.165029 -3.0713,0.43761 -1.06747,0.291692 -1.99103,1.014035 -3.06806,1.268159 -1.07665,0.254032 -2.23663,-0.02993 -3.31016,0.236964 -1.06841,0.265624 -2.09427,0.740431 -3.02127,1.334333 -0.81276,0.520711 -1.40632,1.327093 -2.17,1.917444 -0.69978,0.54095 -1.4457,1.021807 -2.20121,1.481726 -0.86578,0.527051 -1.66345,1.604902 -2.66677,1.461007 -0.45177,-0.06479 -0.90328,-0.516959 -0.96747,-0.968805 -0.0611,-0.429838 0.32011,-0.834622 0.62723,-1.141486 0.53591,-0.53546 1.39665,-0.625271 1.99275,-1.092802 0.8476,-0.664792 1.30114,-1.76486 2.18427,-2.38168 0.59493,-0.415526 1.43217,-0.394087 2.01292,-0.829211 0.52048,-0.389971 0.67807,-1.163085 1.22003,-1.522613 1.51734,-1.006579 3.52732,-0.916218 5.25556,-1.489525 1.48764,-0.493491 2.85219,-1.39008 4.39326,-1.675911 1.0877,-0.201742 2.25117,0.282161 3.31874,-0.0078 0.57455,-0.156052 1.02738,-0.601955 1.5428,-0.899953 z"
       style="opacity:1;fill:#d00000;fill-rule:evenodd;stroke:none;stroke-width:1px;stroke-linecap:butt;stroke-linejoin:miter;stroke-opacity:1;fill-opacity:1" />
    <path
       id="path4190"
       d="M 165.65625 44.779297 C 165.59085 46.428228 165.00345 48.075116 164.17773 49.503906 C 163.71109 50.311356 162.99837 50.964338 162.28125 51.560547 C 161.6001 52.126852 160.55687 52.261594 160.03125 52.974609 C 159.54002 53.640976 159.84059 54.680103 159.39062 55.375 C 159.08405 55.848451 158.59038 56.205329 158.07812 56.441406 C 157.39515 56.756161 156.56797 57.09588 155.85742 56.849609 C 156.85729 57.350356 158.17115 57.547922 159.20312 57.117188 C 159.72278 56.900286 160.02062 56.318157 160.29102 55.824219 C 160.6879 55.09925 160.45859 54.056706 161.02734 53.457031 C 161.4519 53.009394 162.25405 53.162173 162.76367 52.814453 C 163.85434 52.070279 164.89732 51.078989 165.39844 49.857422 C 166.04172 48.2893 165.94164 46.450037 165.65625 44.779297 z M 151.69727 46.482422 C 151.61669 46.477932 151.5359 46.48239 151.45508 46.484375 C 151.6636 46.484591 151.87269 46.488524 152.07812 46.53125 C 151.95157 46.504929 151.82462 46.489519 151.69727 46.482422 z M 149.00586 46.96875 C 147.80283 47.186131 146.63754 47.60743 145.42383 47.753906 C 144.38127 47.879727 143.29985 47.59933 142.27539 47.830078 C 141.23426 48.064577 140.2598 48.575603 139.34961 49.132812 C 138.43887 49.690359 137.72683 50.523714 136.85938 51.146484 C 136.14311 51.660706 135.3576 52.073801 134.625 52.564453 C 133.93884 53.024001 133.41626 53.857021 132.60156 53.992188 C 132.25894 54.049037 131.86042 53.930758 131.60156 53.699219 C 131.66575 54.151065 132.11659 54.603179 132.56836 54.667969 C 133.57168 54.811864 134.37055 53.734082 135.23633 53.207031 C 135.99184 52.747112 136.73772 52.265559 137.4375 51.724609 C 138.20118 51.134258 138.79466 50.329305 139.60742 49.808594 C 140.53442 49.214692 141.5605 48.73828 142.62891 48.472656 C 143.70244 48.205762 144.8628 48.49036 145.93945 48.236328 C 147.01648 47.982204 147.93839 47.260442 149.00586 46.96875 z "
       style="opacity:0.25;fill:#000000;fill-rule:evenodd;stroke:none;stroke-width:1px;stroke-linecap:butt;stroke-linejoin:miter;stroke-opacity:1;fill-opacity:1" />
  </g>
  <g
     id="g4204">
    <path
       sodipodi:nodetypes="aaaaaaaaaaaaaaaaaaaaaaaaaaaaaa"
       inkscape:connector-curvature="0"
       id="path4175"
       d="m 99.702056,41.115453 c 0.991244,0.52747 1.365514,1.815153 2.249884,2.507015 0.61153,0.478412 1.30986,0.881683 2.05704,1.092802 0.66113,0.186806 1.40516,-0.08834 2.05704,0.128564 0.70489,0.234541 1.48303,0.583715 1.86419,1.221367 0.76144,1.273845 0.85831,3.028676 0.38569,4.435487 -0.47829,1.423721 -1.87072,2.377301 -3.02128,3.342687 -0.98829,0.829242 -2.04035,1.694273 -3.2784,2.057038 -2.118078,0.620625 -4.47056,0.560945 -6.621086,0.06428 -1.213796,-0.280325 -2.161214,-1.276371 -3.342688,-1.671344 -1.860594,-0.622006 -4.160469,0.03147 -5.788649,-1.062944 -1.856952,-1.248182 -1.559637,-4.772333 -3.615413,-5.655516 -0.864588,-0.371436 -1.899187,0.182614 -2.771944,0.534425 -1.14671,0.462244 -2.030831,1.418123 -3.110846,2.019937 -0.968145,0.539478 -2.137947,0.730985 -3.007015,1.418781 -0.734068,0.580956 -0.898758,1.806827 -1.749885,2.196632 -1.201111,0.550093 -2.652187,0.03005 -3.960222,-0.155189 -0.712118,-0.100849 -1.659839,0.05538 -2.094694,-0.51749 -0.200439,-0.264056 -0.09563,-0.687248 0.02986,-0.994093 0.208023,-0.508656 0.87571,-0.717787 1.119428,-1.210337 0.26327,-0.532064 0.06235,-1.213041 0.305815,-1.754454 0.220843,-0.491107 0.525236,-1.021968 1.00646,-1.26359 2.044036,-1.026308 4.617555,0.237244 6.858055,-0.222705 0.766663,-0.157386 1.57941,-0.361094 2.186941,-0.8545 0.516696,-0.419634 0.755846,-1.097298 1.092801,-1.671343 0.514289,-0.876155 0.536167,-2.188811 1.414214,-2.699862 3.261253,-1.898152 7.54101,0.459875 11.313708,0.385695 1.46072,-0.02872 3.09139,0.383285 4.371206,-0.321413 0.630688,-0.347272 0.621754,-1.457042 1.285649,-1.735625 0.857844,-0.359968 1.942874,-0.05133 2.764141,0.385695 z"
       style="opacity:1;fill:#d00000;fill-rule:evenodd;stroke:none;stroke-width:1px;stroke-linecap:butt;stroke-linejoin:miter;stroke-opacity:1;fill-opacity:1" />
    <path
       id="path4199"
       d="M 107.92969 46.064453 C 107.96689 47.738426 107.12359 49.390464 106.17969 50.773438 C 105.54447 51.704138 104.61225 52.425817 103.6582 53.025391 C 102.71207 53.619984 101.6599 54.097856 100.5625 54.308594 C 98.841306 54.639122 97.03819 54.496626 95.304688 54.238281 C 94.079234 54.055649 92.961492 53.374217 91.734375 53.203125 C 89.928332 52.951316 87.865314 54.102221 86.263672 53.230469 C 87.891852 54.324883 90.19214 53.670963 92.052734 54.292969 C 93.234208 54.687942 94.180735 55.684519 95.394531 55.964844 C 97.545057 56.461509 99.897547 56.521016 102.01562 55.900391 C 103.25367 55.537626 104.30663 54.672992 105.29492 53.84375 C 106.44548 52.878364 107.83812 51.923721 108.31641 50.5 C 108.78903 49.093189 108.69113 47.338298 107.92969 46.064453 z M 81.28125 47.234375 C 80.474177 47.206703 79.615687 47.403255 78.847656 47.595703 C 77.604482 47.907204 76.597298 48.824991 75.447266 49.390625 C 74.680397 49.767803 73.819332 49.970725 73.115234 50.455078 C 72.330098 50.995177 71.930391 52.036545 71.076172 52.458984 C 70.249515 52.867793 69.249875 52.7126 68.337891 52.849609 C 67.708279 52.944197 67.042841 53.291235 66.414062 53.392578 C 66.89323 53.573094 67.531106 53.516525 68.048828 53.589844 C 69.356863 53.775083 70.806702 54.294234 72.007812 53.744141 C 72.858939 53.354336 73.023745 52.129784 73.757812 51.548828 C 74.62688 50.861032 75.79748 50.668384 76.765625 50.128906 C 77.84564 49.527092 78.730243 48.571619 79.876953 48.109375 C 80.74971 47.757564 81.78385 47.202783 82.648438 47.574219 C 82.231153 47.34715 81.765494 47.250978 81.28125 47.234375 z "
       style="opacity:0.25;fill:#000000;fill-rule:evenodd;stroke:none;stroke-width:1px;stroke-linecap:butt;stroke-linejoin:miter;stroke-opacity:1;fill-opacity:1" />
  </g>
  <g
     id="g4213">
    <path
       sodipodi:nodetypes="aaaaaaaaaaaaaaaaaaaaaaaaaaaaaaaaaa"
       inkscape:connector-curvature="0"
       id="path4173"
       d="m 25.23637,44.492174 c 0.837028,-0.112818 1.658001,-0.337418 2.464791,-0.587287 0.878623,-0.272117 1.670621,-0.826553 2.575866,-0.989525 1.001757,-0.180347 2.057049,-0.175937 3.053416,0.03214 0.751887,0.157022 1.46932,0.493891 2.12132,0.899954 0.709233,0.441709 1.175988,1.215856 1.896332,1.639203 0.727591,0.427606 1.644426,0.451345 2.37845,0.867813 0.576308,0.326984 1.373207,0.612964 1.542778,1.253507 0.105906,0.400052 -0.213124,0.817733 -0.449977,1.157084 -0.278039,0.39836 -0.792599,0.582301 -1.092801,0.964236 -0.284304,0.361709 -0.324435,0.889267 -0.642824,1.221367 -0.368789,0.38467 -0.911942,0.552625 -1.382073,0.80353 -0.431176,0.230115 -0.837289,0.553469 -1.31779,0.642825 -2.939109,0.546567 -5.993277,-0.240499 -8.935258,-0.77139 -1.181807,-0.213261 -2.505046,-0.251078 -3.471252,-0.964236 -0.603573,-0.445498 -0.84462,-1.242046 -1.214571,-1.89466 -0.143475,-0.253098 -0.180688,-0.577986 -0.388542,-0.781555 -0.210342,-0.206004 -0.514749,-0.299657 -0.798926,-0.376629 -0.64643,-0.175092 -1.33501,-0.109913 -2.001305,-0.177584 -0.514966,-0.0523 -1.028157,-0.23212 -1.542779,-0.176535 -0.94137,0.101679 -1.751823,0.776859 -2.688076,0.918091 -0.915362,0.13808 -1.870125,0.108547 -2.775931,-0.08242 -0.724185,-0.152684 -1.333926,-0.678022 -2.05704,-0.83568 C 9.5462278,47.044256 8.513781,46.900852 7.5531861,47.125858 6.9695872,47.262557 6.5730429,47.919404 5.9782665,47.99367 5.4728658,48.056777 4.5833186,48.110402 4.4997704,47.607976 4.350129,46.708091 6.0287386,46.612206 6.7817969,46.097338 7.3339057,45.71986 7.7846682,45.146161 8.420999,44.940255 c 0.9072672,-0.293576 1.934173,-0.258221 2.860569,-0.03214 0.530822,0.129542 0.922898,0.614712 1.446354,0.771389 0.896721,0.268401 1.870279,0.393726 2.796286,0.25713 0.960486,-0.141682 1.753124,-0.877644 2.699863,-1.092802 1.296195,-0.294576 2.652293,-0.184359 3.979996,-0.248385 1.01018,-0.04871 2.030012,0.03182 3.032303,-0.103273 z"
       style="opacity:1;fill:#d00000;fill-rule:evenodd;stroke:none;stroke-width:1px;stroke-linecap:butt;stroke-linejoin:miter;stroke-opacity:1;fill-opacity:1" />
    <path
       id="path4208"
       d="M 8.1699219 46.316406 C 7.907486 46.323321 7.6476566 46.353271 7.3925781 46.417969 C 6.8135324 46.564836 6.4408956 47.169723 5.8828125 47.382812 C 5.446762 47.549307 4.845105 47.921688 4.5 47.607422 C 4.5835482 48.109848 5.4731149 48.057248 5.9785156 47.994141 C 6.573292 47.919875 6.9691355 47.261699 7.5527344 47.125 C 8.5133293 46.899994 9.5458154 47.043739 10.509766 47.253906 C 11.23288 47.411564 11.842221 47.93716 12.566406 48.089844 C 13.472212 48.280811 14.428388 48.309955 15.34375 48.171875 C 16.280003 48.030643 17.08988 47.355585 18.03125 47.253906 C 16.852313 47.238046 15.686733 47.579546 14.507812 47.5625 C 13.899897 47.5537 13.289086 47.482228 12.695312 47.351562 C 11.957437 47.189189 11.284283 46.7904 10.542969 46.644531 C 9.7683564 46.49211 8.9572294 46.295661 8.1699219 46.316406 z M 41.269531 47.607422 C 40.996254 48.245006 39.915064 47.967279 39.304688 48.296875 C 38.926938 48.500855 38.597695 48.787852 38.283203 49.080078 C 37.986876 49.355424 37.778906 49.717603 37.476562 49.986328 C 37.154452 50.272624 36.817641 50.570298 36.416016 50.726562 C 35.665492 51.018578 34.826565 51.026796 34.021484 51.046875 C 31.904145 51.099685 29.789541 50.792426 27.689453 50.517578 C 26.480839 50.359401 25.194725 50.387835 24.089844 49.873047 C 23.567645 49.629743 23.120705 49.219702 22.763672 48.767578 C 23.133623 49.420192 23.372989 50.216611 23.976562 50.662109 C 24.942769 51.375267 26.267412 51.411739 27.449219 51.625 C 30.3912 52.155891 33.445657 52.943051 36.384766 52.396484 C 36.865267 52.307128 37.269996 51.984021 37.701172 51.753906 C 38.171303 51.503001 38.715195 51.335842 39.083984 50.951172 C 39.402373 50.619072 39.442259 50.090225 39.726562 49.728516 C 40.026765 49.346581 40.542274 49.163985 40.820312 48.765625 C 41.057165 48.426274 41.375437 48.007474 41.269531 47.607422 z "
       style="opacity:0.25;fill:#000000;fill-rule:evenodd;stroke:none;stroke-width:1px;stroke-linecap:butt;stroke-linejoin:miter;stroke-opacity:1;fill-opacity:1" />
  </g>
  <g
     id="g4226">
    <ellipse
       ry="3.8569462"
       rx="8.0353041"
       cy="16.945257"
       cx="31.94837"
       id="path4169"
       style="opacity:1;fill:#d00000;fill-opacity:1;stroke:none;stroke-width:5;stroke-linecap:round;stroke-linejoin:round;stroke-miterlimit:4;stroke-dasharray:none;stroke-opacity:1" />
    <path
       id="ellipse4217"
       d="M 38.712891 14.865234 A 8.0353041 3.8569462 0 0 1 38.955078 15.789062 A 8.0353041 3.8569462 0 0 1 30.919922 19.644531 A 8.0353041 3.8569462 0 0 1 24.15625 17.871094 A 8.0353041 3.8569462 0 0 0 31.949219 20.802734 A 8.0353041 3.8569462 0 0 0 39.984375 16.945312 A 8.0353041 3.8569462 0 0 0 38.712891 14.865234 z "
       style="opacity:0.25;fill:#000000;fill-opacity:1;stroke:none;stroke-width:5;stroke-linecap:round;stroke-linejoin:round;stroke-miterlimit:4;stroke-dasharray:none;stroke-opacity:1" />
  </g>
  <g
     id="g4231">
    <ellipse
       style="opacity:1;fill:#d00000;fill-opacity:1;stroke:none;stroke-width:5;stroke-linecap:round;stroke-linejoin:round;stroke-miterlimit:4;stroke-dasharray:none;stroke-opacity:1"
       id="ellipse4171"
       cx="95.312004"
       cy="17.672529"
       rx="13.489849"
       ry="3.8569462" />
    <path
       id="ellipse4219"
       d="M 107.70508 16.160156 A 13.489849 3.8569462 0 0 1 107.77344 16.515625 A 13.489849 3.8569462 0 0 1 94.283203 20.373047 A 13.489849 3.8569462 0 0 1 81.890625 18.027344 A 13.489849 3.8569462 0 0 0 95.3125 21.529297 A 13.489849 3.8569462 0 0 0 108.80273 17.671875 A 13.489849 3.8569462 0 0 0 107.70508 16.160156 z "
       style="opacity:0.25;fill:#000000;fill-opacity:1;stroke:none;stroke-width:5;stroke-linecap:round;stroke-linejoin:round;stroke-miterlimit:4;stroke-dasharray:none;stroke-opacity:1" />
  </g>
</svg>
